<?xml version="1.0" encoding="utf-8"?>
<!-- Generator: Adobe Illustrator 16.0.0, SVG Export Plug-In . SVG Version: 6.00 Build 0)  -->
<!DOCTYPE svg PUBLIC "-//W3C//DTD SVG 1.1//EN" "http://www.w3.org/Graphics/SVG/1.1/DTD/svg11.dtd">
<svg version="1.1" id="Layer_1" xmlns="http://www.w3.org/2000/svg" xmlns:xlink="http://www.w3.org/1999/xlink" x="0px" y="0px"
	 width="240.525px" height="64.535px" viewBox="0 0 240.525 64.535" enable-background="new 0 0 240.525 64.535"
	 xml:space="preserve">
<g>
	<g>
		<path fill="#FFFFFF" d="M32.968,9.581l-3.034,7.379h-9.225v31.837h-9.224V16.959H0V9.581H32.968z"/>
		<path fill="#FFFFFF" d="M51.302,37.31H33.093c0.078,1.627,0.871,2.896,2.38,3.811c1.349,0.832,2.896,1.248,4.642,1.248
			c2.618,0,5.197-0.633,7.736-1.904l2.023,5.654c-3.333,2.182-7.063,3.273-11.188,3.273c-4.88,0-8.609-1.488-11.188-4.465
			c-2.262-2.578-3.393-5.871-3.393-9.877c0-4.165,1.17-7.656,3.512-10.474c2.537-3.055,5.93-4.582,10.176-4.582
			c3.967,0,7.209,1.339,9.729,4.017s3.779,6.18,3.779,10.502V37.31z M42.196,31.361c-0.238-3.253-1.824-4.88-4.76-4.88
			c-1.389,0-2.51,0.516-3.363,1.547c-0.853,1.032-1.278,2.143-1.278,3.333H42.196z"/>
		<path fill="#FFFFFF" d="M79.69,48.796h-9.862l-6.015-8.945l-5.658,8.945h-9.23l9.997-14.461l-9.283-13.687h9.819l5.415,8.748
			l5.534-8.748h9.224l-9.64,14.222L79.69,48.796z"/>
		<path fill="#FFFFFF" d="M99.064,46.177c-3.015,2.143-6.626,3.215-10.831,3.215c-5.038,0-7.557-2.322-7.557-6.963V27.135H75.38
			v-6.486h5.297v-6.664l8.985-2.56v9.224h8.866l-2.498,6.486h-6.368v11.831c0,2.031,0.893,3.045,2.678,3.045
			c1.468,0,2.955-0.436,4.464-1.309L99.064,46.177z"/>
		<path fill="#FFFFFF" d="M142.001,48.796h-8.986V28.802c0-2.023,0-3.432,0-4.226c-0.198,0.438-1.074,1.825-2.625,4.166l-6.443,9.64
			h-3.997l-7.338-9.997c-0.597-0.793-1.473-2.063-2.626-3.809h-0.119c0,0.873,0,2.183,0,3.928v20.292h-8.986V9.581h8.213
			l9.819,13.688c1.229,1.705,2.24,3.253,3.034,4.642h0.119c0.833-1.667,1.785-3.313,2.856-4.939l8.808-13.39h8.271V48.796z"/>
		<path fill="#FFFFFF" d="M170.597,48.796h-7.617l-1.25-2.381c-2.261,1.984-4.879,2.977-7.854,2.977
			c-2.817,0-5.118-0.854-6.903-2.559c-1.785-1.707-2.678-3.949-2.678-6.725c0-2.936,1.126-5.217,3.38-6.844
			c2.136-1.508,5.04-2.341,8.716-2.499l4.508-0.179v-0.238c0-1.19-0.475-2.103-1.424-2.737c-0.948-0.634-2.114-0.952-3.496-0.952
			c-2.608,0-4.999,0.575-7.172,1.726l-2.607-5.296c3.214-2.063,7.121-3.095,11.723-3.095c8.133,0,12.199,3.531,12.199,10.593v12.938
			C170.12,46.001,170.278,47.757,170.597,48.796z M160.897,41.619v-5.26h-3.035c-3.056,0.117-4.582,1.119-4.582,3.004
			c0,2.045,1.328,3.066,3.986,3.066C158.813,42.429,160.023,42.16,160.897,41.619z"/>
		<path fill="#FFFFFF" d="M200.978,54.953c0,2.699-1.368,4.92-4.105,6.666c-3.016,1.943-7.181,2.916-12.496,2.916
			c-4.047,0-7.291-0.814-9.73-2.439c-2.439-1.627-3.658-3.592-3.658-5.893c0-1.547,0.515-2.916,1.546-4.105
			c0.912-1.111,2.063-1.904,3.452-2.381c-1.23-0.674-1.846-1.883-1.846-3.629c0-2.223,1.271-3.928,3.81-5.119
			c-1.548-0.713-2.777-1.904-3.69-3.57c-0.873-1.547-1.309-3.271-1.309-5.176c0-2.816,0.952-5.217,2.855-7.201
			c2.262-2.34,5.436-3.511,9.521-3.511c2.223,0,4.126,0.477,5.713,1.428c0.199,0.119,0.436,0.06,0.715-0.178
			c1.746-1.666,4.185-2.499,7.319-2.499c0.674,0,1.407,0.04,2.202,0.118l-1.667,6.189c-1.746-0.357-3.034-0.396-3.868-0.119
			c1.508,1.984,2.262,4.305,2.262,6.962c0,2.975-1.182,5.377-3.541,7.201c-2.36,1.824-5.146,2.736-8.361,2.736
			c-1.665,0-2.975-0.158-3.926-0.475c-0.2,0.555-0.299,1.09-0.299,1.605c0,1.07,1.646,1.865,4.939,2.381
			c4.84,0.754,7.915,1.369,9.225,1.844C199.331,49.976,200.978,52.056,200.978,54.953z M191.22,55.964
			c0-1.031-1.607-1.844-4.82-2.439c-4.166-0.754-6.508-1.27-7.023-1.547c-0.793,0.715-1.189,1.586-1.189,2.619
			c0,1.07,0.635,1.992,1.904,2.766s2.976,1.162,5.117,1.162C189.215,58.525,191.22,57.669,191.22,55.964z M189.256,32.519
			c0-1.07-0.357-2.022-1.071-2.855c-0.834-1.032-1.965-1.548-3.392-1.548c-2.343,0-3.511,1.33-3.511,3.987
			c0,1.27,0.336,2.32,1.011,3.154c0.714,0.951,1.706,1.428,2.976,1.428C187.925,36.685,189.256,35.296,189.256,32.519z"/>
		<path fill="#FFFFFF" d="M213.536,13.833c0,1.429-0.517,2.648-1.549,3.66c-1.031,1.012-2.301,1.518-3.809,1.518
			s-2.775-0.496-3.808-1.488c-1.032-0.991-1.548-2.222-1.548-3.689c0-1.428,0.516-2.638,1.548-3.63
			c1.032-0.991,2.3-1.487,3.808-1.487s2.777,0.486,3.809,1.458C213.02,11.146,213.536,12.367,213.536,13.833z"/>
		<rect x="203.656" y="20.649" fill="#FFFFFF" width="8.985" height="28.147"/>
		<path fill="#FFFFFF" d="M240.525,46.119c-3.016,2.182-6.566,3.273-10.652,3.273c-4.562,0-8.133-1.43-10.712-4.285
			c-2.42-2.658-3.629-6.109-3.629-10.355c0-4.362,1.547-7.952,4.642-10.77c2.895-2.657,6.367-3.987,10.413-3.987
			c3.65,0,6.506,0.694,8.57,2.083l-0.178,7.021c-1.938-1.626-4.229-2.439-6.876-2.439c-2.094,0-3.882,0.724-5.364,2.172
			c-1.481,1.449-2.222,3.283-2.222,5.504c0,2.182,0.573,3.986,1.719,5.416c1.344,1.705,3.28,2.559,5.812,2.559
			c1.975,0,4.108-0.635,6.402-1.904L240.525,46.119z"/>
	</g>
	<g>
		<path fill="#FFFFFF" d="M216.247,5.411c2.376,2.377,4.793,6.697,3.24,9.837c4.486-1.613,1.044-8.815-1.609-11.469
			c-2.654-2.655-9.852-6.093-11.469-1.609C209.549,0.618,213.871,3.036,216.247,5.411z"/>
		<path fill="#FFFFFF" d="M213.216,8.442c2.479,2.479,2.897,5.584,1.994,6.354c4.098-0.556,1.434-6.189-0.361-7.985
			c-1.801-1.801-7.431-4.461-7.986-0.362C207.633,5.544,210.735,5.962,213.216,8.442z"/>
	</g>
</g>
</svg>
